<svg width="16" height="16" viewBox="0 0 16 16" fill="none" xmlns="http://www.w3.org/2000/svg">
<path fill-rule="evenodd" clip-rule="evenodd" d="M7.50735 14.8932C7.50735 14.8932 2.66602 10.8158 2.66602 6.80384C2.66602 5.38935 3.22792 4.0328 4.22811 3.0326C5.22831 2.03241 6.58486 1.4705 7.99935 1.4705C9.41384 1.4705 10.7704 2.03241 11.7706 3.0326C12.7708 4.0328 13.3327 5.38935 13.3327 6.80384C13.3327 10.8158 8.49135 14.8932 8.49135 14.8932C8.22202 15.1412 7.77868 15.1385 7.50735 14.8932ZM7.99935 9.13717C8.30577 9.13717 8.60918 9.07682 8.89228 8.95956C9.17537 8.8423 9.43259 8.67042 9.64926 8.45375C9.86593 8.23708 10.0378 7.97986 10.1551 7.69677C10.2723 7.41367 10.3327 7.11026 10.3327 6.80384C10.3327 6.49742 10.2723 6.194 10.1551 5.91091C10.0378 5.62782 9.86593 5.37059 9.64926 5.15392C9.43259 4.93725 9.17537 4.76538 8.89228 4.64812C8.60918 4.53086 8.30577 4.4705 7.99935 4.4705C7.38051 4.4705 6.78702 4.71634 6.34943 5.15392C5.91185 5.59151 5.66602 6.185 5.66602 6.80384C5.66602 7.42268 5.91185 8.01617 6.34943 8.45375C6.78702 8.89134 7.38051 9.13717 7.99935 9.13717Z" fill="#BDBDBD"/>
</svg>
