<svg width="24" height="24" viewBox="0 0 24 24" fill="none" xmlns="http://www.w3.org/2000/svg">
<path d="M12.402 22.7864L12.3913 22.7883L12.3218 22.8225L12.3023 22.8264L12.2886 22.8225L12.2192 22.7883C12.2087 22.7851 12.2009 22.7867 12.1957 22.7932L12.1918 22.803L12.1752 23.2215L12.18 23.241L12.1898 23.2538L12.2915 23.3261L12.3062 23.33L12.3179 23.3261L12.4196 23.2538L12.4313 23.2381L12.4353 23.2215L12.4186 22.804C12.416 22.7935 12.4105 22.7877 12.402 22.7864ZM12.6611 22.6759L12.6484 22.6778L12.4675 22.7688L12.4577 22.7785L12.4548 22.7893L12.4724 23.2097L12.4773 23.2215L12.4851 23.2283L12.6817 23.3193C12.6941 23.3225 12.7035 23.3199 12.71 23.3114L12.7139 23.2978L12.6807 22.6974C12.6774 22.6856 12.6709 22.6785 12.6611 22.6759ZM11.962 22.6778C11.9577 22.6752 11.9525 22.6744 11.9476 22.6755C11.9427 22.6765 11.9384 22.6795 11.9356 22.6837L11.9297 22.6974L11.8965 23.2978C11.8971 23.3095 11.9027 23.3173 11.9131 23.3212L11.9278 23.3193L12.1243 23.2283L12.1341 23.2205L12.138 23.2097L12.1546 22.7893L12.1517 22.7776L12.1419 22.7678L11.962 22.6778Z" fill="#FF7252"/>
<path d="M4 4.93344C4 4.15544 4.30906 3.40931 4.85918 2.85918C5.40931 2.30906 6.15544 2 6.93344 2H16.7116C17.4896 2 18.2357 2.30906 18.7858 2.85918C19.3359 3.40931 19.645 4.15544 19.645 4.93344V20.6058C19.645 21.7987 18.2956 22.493 17.3256 21.7997L11.8225 17.8689L6.31937 21.7997C5.3484 22.494 4 21.7997 4 20.6068V4.93344Z" fill="#FF7252"/>
</svg>
