<svg width="24" height="24" viewBox="0 0 24 24" fill="none" xmlns="http://www.w3.org/2000/svg">
<path fill-rule="evenodd" clip-rule="evenodd" d="M4 4.9339C4 4.15578 4.30911 3.40953 4.85932 2.85932C5.40953 2.30911 6.15578 2 6.9339 2H16.7135C17.4917 2 18.2379 2.30911 18.7881 2.85932C19.3383 3.40953 19.6474 4.15578 19.6474 4.9339V20.6087C19.6474 21.8018 18.2979 22.4962 17.3277 21.8028L11.8237 17.8714L6.31973 21.8028C5.34861 22.4972 4 21.8028 4 20.6097V4.9339ZM6.9339 3.95593C6.67452 3.95593 6.42577 4.05897 6.24237 4.24237C6.05897 4.42577 5.95593 4.67452 5.95593 4.9339V19.6591L10.9709 16.0768C11.2198 15.8991 11.5179 15.8035 11.8237 15.8035C12.1295 15.8035 12.4277 15.8991 12.6765 16.0768L17.6915 19.6591V4.9339C17.6915 4.67452 17.5885 4.42577 17.4051 4.24237C17.2217 4.05897 16.9729 3.95593 16.7135 3.95593H6.9339Z" fill="#FF7252"/>
</svg>
