<svg width="31" height="44" viewBox="0 0 31 44" fill="none" xmlns="http://www.w3.org/2000/svg">
<path d="M17.6667 21.467L17.6645 20.9254C17.5212 20.9259 17.384 20.9832 17.2829 21.0848C17.1818 21.1863 17.125 21.3237 17.125 21.467H17.6667ZM17.6667 21.467L18.1509 21.7108C18.1887 21.6354 18.2084 21.5524 18.2084 21.4681L17.6667 21.467ZM13.3334 21.4681H12.7917C12.7917 21.5524 12.8114 21.6354 12.8491 21.7108L13.3334 21.4681ZM13.3334 21.4681L13.875 21.467C13.875 21.3237 13.8183 21.1863 13.7171 21.0848C13.616 20.9832 13.4788 20.9259 13.3355 20.9254L13.3334 21.4681ZM24.7084 13.8848C24.7084 12.3746 24.7084 11.2014 24.6141 10.2697C24.5188 9.32935 24.3216 8.57643 23.8872 7.92643L22.9859 8.52877C23.2816 8.97077 23.4495 9.52543 23.5362 10.3791C23.6239 11.2436 23.625 12.3519 23.625 13.8848H24.7084ZM23.8872 19.8431C24.3205 19.1931 24.5188 18.4402 24.6141 17.4999C24.7094 16.5682 24.7084 15.3949 24.7084 13.8848H23.625C23.625 15.4177 23.625 16.5259 23.5362 17.3904C23.4495 18.2441 23.2816 18.7988 22.9859 19.2408L23.8872 19.8431ZM22.5417 21.1886C23.0742 20.8328 23.5314 20.3756 23.8872 19.8431L22.9859 19.2408C22.7096 19.6557 22.3543 20.0099 21.9404 20.2873L22.5417 21.1886ZM17.6689 22.0087C18.8356 22.0033 19.7738 21.9805 20.5462 21.8744C21.3273 21.766 21.974 21.5678 22.5417 21.1886L21.9404 20.2873C21.5526 20.5462 21.0814 20.7065 20.3978 20.8008C19.7066 20.8961 18.8356 20.9199 17.6645 20.9254L17.6689 22.0087ZM16.9539 24.106L18.1509 21.7108L17.1824 21.2254L15.9843 23.6218L16.9539 24.106ZM14.0462 24.106C14.6453 25.3031 16.3537 25.3031 16.9539 24.106L15.9843 23.6218C15.9392 23.7116 15.8701 23.7872 15.7846 23.84C15.6991 23.8928 15.6005 23.9207 15.5 23.9207C15.3995 23.9207 15.301 23.8928 15.2155 23.84C15.13 23.7872 15.0608 23.7116 15.0158 23.6218L14.0462 24.106ZM12.8491 21.7108L14.0462 24.106L15.0158 23.6207L13.8176 21.2265L12.8491 21.7108ZM8.45835 21.1886C9.02602 21.5678 9.67169 21.766 10.4539 21.8744C11.2263 21.9805 12.1655 22.0033 13.3312 22.0087L13.3355 20.9254C12.1644 20.9199 11.2934 20.8972 10.6023 20.8008C9.91977 20.7065 9.44744 20.5462 9.06069 20.2873L8.45835 21.1886ZM7.11285 19.8431C7.46862 20.3756 7.92583 20.8328 8.45835 21.1886L9.06069 20.2873C8.6465 20.0106 8.2909 19.655 8.01419 19.2408L7.11285 19.8431ZM6.29169 13.8848C6.29169 15.3949 6.29169 16.5682 6.38594 17.4999C6.48127 18.4402 6.67844 19.1931 7.11285 19.8431L8.01419 19.2408C7.71844 18.7988 7.55052 18.2441 7.46385 17.3894C7.37502 16.527 7.37502 15.4188 7.37502 13.8848H6.29169ZM7.11285 7.92643C6.67952 8.57643 6.48127 9.32935 6.38594 10.2697C6.2906 11.2014 6.29169 12.3746 6.29169 13.8848H7.37502C7.37502 12.3519 7.37502 11.2436 7.46385 10.3791C7.55052 9.52543 7.71844 8.97077 8.01419 8.52877L7.11285 7.92643ZM8.45835 6.58093C7.92583 6.9367 7.46862 7.39391 7.11285 7.92643L8.01419 8.52877C8.2909 8.11458 8.6465 7.75897 9.06069 7.48227L8.45835 6.58093ZM14.4167 5.75977C12.9065 5.75977 11.7333 5.75977 10.8016 5.85402C9.86127 5.94935 9.10835 6.14652 8.45835 6.58093L9.06069 7.48227C9.50269 7.18652 10.0574 7.0186 10.911 6.93193C11.7755 6.8431 12.8838 6.8431 14.4167 6.8431V5.75977ZM16.5834 5.75977H14.4167V6.8431H16.5834V5.75977ZM22.5417 6.58093C21.8917 6.1476 21.1388 5.94935 20.1984 5.85402C19.2668 5.75868 18.0935 5.75977 16.5834 5.75977V6.8431C18.1163 6.8431 19.2245 6.8431 20.0879 6.93193C20.9438 7.0186 21.4963 7.18652 21.9404 7.48227L22.5417 6.58093ZM23.8872 7.92643C23.5314 7.39391 23.0742 6.9367 22.5417 6.58093L21.9404 7.48227C22.3543 7.75852 22.7096 8.11385 22.9859 8.52877L23.8872 7.92643Z" fill="#747474"/>
<path d="M23.4365 8.2276L22.9859 8.52877M22.9859 8.52877L23.8872 7.92643M22.9859 8.52877C23.2816 8.97077 23.4495 9.52543 23.5362 10.3791C23.6239 11.2436 23.625 12.3519 23.625 13.8848M22.9859 8.52877C22.7096 8.11385 22.3543 7.75852 21.9404 7.48227M23.4365 19.5419L22.9859 19.2408M22.9859 19.2408C23.2816 18.7988 23.4495 18.2441 23.5362 17.3904C23.625 16.5259 23.625 15.4177 23.625 13.8848M22.9859 19.2408L23.8872 19.8431M22.9859 19.2408C22.7096 19.6557 22.3543 20.0099 21.9404 20.2873M22.2405 20.7379L21.9404 20.2873M21.9404 20.2873L22.5417 21.1886M21.9404 20.2873C21.5526 20.5462 21.0814 20.7065 20.3978 20.8008C19.7066 20.8961 18.8356 20.9199 17.6645 20.9254M17.6667 21.467L17.6645 20.9254M17.6667 21.467H17.125M17.6667 21.467L18.1509 21.7108M17.6667 21.467L18.2084 21.4681M17.6645 20.9254C17.5212 20.9259 17.384 20.9832 17.2829 21.0848C17.1818 21.1863 17.125 21.3237 17.125 21.467M17.6645 20.9254L17.6689 22.0087C18.8356 22.0033 19.7738 21.9805 20.5462 21.8744C21.3273 21.766 21.974 21.5678 22.5417 21.1886M17.125 21.467L18.2084 21.4681M18.1509 21.7108C18.1887 21.6354 18.2084 21.5524 18.2084 21.4681M18.1509 21.7108L16.9539 24.106M18.1509 21.7108L17.1824 21.2254L15.9843 23.6218M13.3334 21.4681H12.7917M13.3334 21.4681L12.8491 21.7108M13.3334 21.4681L13.875 21.467M13.3334 21.4681L13.3355 20.9254M12.7917 21.4681C12.7917 21.5524 12.8114 21.6354 12.8491 21.7108M12.7917 21.4681L13.875 21.467M12.8491 21.7108L14.0462 24.106M12.8491 21.7108L13.8176 21.2265L15.0158 23.6207L14.0462 24.106M13.875 21.467C13.875 21.3237 13.8183 21.1863 13.7171 21.0848C13.616 20.9832 13.4788 20.9259 13.3355 20.9254M13.3355 20.9254L13.3312 22.0087C12.1655 22.0033 11.2263 21.9805 10.4539 21.8744C9.67169 21.766 9.02602 21.5678 8.45835 21.1886M13.3355 20.9254C12.1644 20.9199 11.2934 20.8972 10.6023 20.8008C9.91977 20.7065 9.44744 20.5462 9.06069 20.2873M8.75952 20.7379L9.06069 20.2873M9.06069 20.2873L8.45835 21.1886M9.06069 20.2873C8.6465 20.0106 8.2909 19.655 8.01419 19.2408M7.56352 19.5419L8.01419 19.2408M8.01419 19.2408L7.11285 19.8431M8.01419 19.2408C7.71844 18.7988 7.55052 18.2441 7.46385 17.3894C7.37502 16.527 7.37502 15.4188 7.37502 13.8848M7.56352 8.2276L8.01419 8.52877M8.01419 8.52877C7.71844 8.97077 7.55052 9.52543 7.46385 10.3791C7.37502 11.2436 7.37502 12.3519 7.37502 13.8848M8.01419 8.52877L7.11285 7.92643M8.01419 8.52877C8.2909 8.11458 8.6465 7.75897 9.06069 7.48227M8.75952 7.0316L9.06069 7.48227M9.06069 7.48227L8.45835 6.58093M9.06069 7.48227C9.50269 7.18652 10.0574 7.0186 10.911 6.93193C11.7755 6.8431 12.8838 6.8431 14.4167 6.8431M22.2405 7.0316L21.9404 7.48227M21.9404 7.48227C21.4963 7.18652 20.9438 7.0186 20.0879 6.93193C19.2245 6.8431 18.1163 6.8431 16.5834 6.8431M21.9404 7.48227L22.5417 6.58093M24.7084 13.8848C24.7084 12.3746 24.7084 11.2014 24.6141 10.2697C24.5188 9.32935 24.3216 8.57643 23.8872 7.92643M24.7084 13.8848H23.625M24.7084 13.8848C24.7084 15.3949 24.7094 16.5682 24.6141 17.4999C24.5188 18.4402 24.3205 19.1931 23.8872 19.8431M23.8872 7.92643C23.5314 7.39391 23.0742 6.9367 22.5417 6.58093M23.8872 19.8431C23.5314 20.3756 23.0742 20.8328 22.5417 21.1886M16.9539 24.106L15.9843 23.6218M16.9539 24.106C16.3537 25.3031 14.6453 25.3031 14.0462 24.106M15.9843 23.6218C15.9392 23.7116 15.8701 23.7872 15.7846 23.84C15.6991 23.8928 15.6005 23.9207 15.5 23.9207C15.3995 23.9207 15.301 23.8928 15.2155 23.84C15.13 23.7872 15.0608 23.7116 15.0158 23.6218L14.0462 24.106M8.45835 21.1886C7.92583 20.8328 7.46862 20.3756 7.11285 19.8431M7.11285 19.8431C6.67844 19.1931 6.48127 18.4402 6.38594 17.4999C6.29169 16.5682 6.29169 15.3949 6.29169 13.8848M6.29169 13.8848H7.37502M6.29169 13.8848C6.29169 12.3746 6.2906 11.2014 6.38594 10.2697C6.48127 9.32935 6.67952 8.57643 7.11285 7.92643M7.11285 7.92643C7.46862 7.39391 7.92583 6.9367 8.45835 6.58093M8.45835 6.58093C9.10835 6.14652 9.86127 5.94935 10.8016 5.85402C11.7333 5.75977 12.9065 5.75977 14.4167 5.75977M14.4167 5.75977V6.8431M14.4167 5.75977H16.5834M14.4167 6.8431H16.5834M16.5834 5.75977V6.8431M16.5834 5.75977C18.0935 5.75977 19.2668 5.75868 20.1984 5.85402C21.1388 5.94935 21.8917 6.1476 22.5417 6.58093" stroke="#747474"/>
<path d="M19.8333 15.0002C20.4316 15.0002 20.9167 14.5151 20.9167 13.9168C20.9167 13.3185 20.4316 12.8335 19.8333 12.8335C19.235 12.8335 18.75 13.3185 18.75 13.9168C18.75 14.5151 19.235 15.0002 19.8333 15.0002Z" fill="#747474"/>
<path d="M15.5 15.0002C16.0983 15.0002 16.5834 14.5151 16.5834 13.9168C16.5834 13.3185 16.0983 12.8335 15.5 12.8335C14.9017 12.8335 14.4167 13.3185 14.4167 13.9168C14.4167 14.5151 14.9017 15.0002 15.5 15.0002Z" fill="#747474"/>
<path d="M11.1666 15.0002C11.765 15.0002 12.25 14.5151 12.25 13.9168C12.25 13.3185 11.765 12.8335 11.1666 12.8335C10.5683 12.8335 10.0833 13.3185 10.0833 13.9168C10.0833 14.5151 10.5683 15.0002 11.1666 15.0002Z" fill="#747474"/>
<path d="M9.86523 35.3125C9.71875 34.4629 9.03516 33.9746 8.17578 33.9746C7.01367 33.9746 6.20312 34.8633 6.20312 36.4648C6.20312 38.0859 7.02344 38.9551 8.17578 38.9551C9.01562 38.9551 9.69922 38.4863 9.86523 37.6562H11.1445C10.9492 39.0137 9.83594 40.0977 8.15625 40.0977C6.29102 40.0977 4.92383 38.7402 4.92383 36.4648C4.92383 34.1797 6.31055 32.832 8.15625 32.832C9.71875 32.832 10.9297 33.7402 11.1445 35.3125H9.86523ZM13.4297 36.8945V40H12.1797V32.9297H13.4004V35.5957H13.4688C13.7129 35 14.2207 34.6289 15.041 34.6289C16.1445 34.6289 16.8672 35.3418 16.8672 36.6211V40H15.627V36.8164C15.627 36.0938 15.2363 35.6836 14.582 35.6836C13.9082 35.6836 13.4297 36.123 13.4297 36.8945ZM17.8047 38.5059C17.8047 37.3145 18.791 36.9629 19.7773 36.9043C20.1436 36.8799 20.9053 36.8359 21.1348 36.8262V36.4062C21.1348 35.8789 20.793 35.5762 20.1777 35.5762C19.6211 35.5762 19.2793 35.8301 19.1816 36.2109H17.9805C18.0684 35.3125 18.8789 34.6289 20.207 34.6289C21.2129 34.6289 22.375 35.0391 22.375 36.4551V40H21.1836V39.2676H21.1445C20.9102 39.7168 20.4121 40.1074 19.582 40.1074C18.5664 40.1074 17.8047 39.5508 17.8047 38.5059ZM19.0059 38.4961C19.0059 38.9551 19.377 39.1895 19.9043 39.1895C20.6562 39.1895 21.1445 38.6914 21.1445 38.0957V37.6562L19.9727 37.7344C19.377 37.7832 19.0059 38.0273 19.0059 38.4961ZM26.1934 34.6973V35.6543H25.1484V38.4082C25.1484 38.916 25.4023 39.0234 25.7148 39.0234C25.8613 39.0234 26.1055 39.0137 26.2617 39.0039V40.0195C26.1152 40.0488 25.8711 40.0684 25.5586 40.0684C24.6211 40.0684 23.8984 39.6094 23.9082 38.6133V35.6543H23.1465V34.6973H23.9082V33.4277H25.1484V34.6973H26.1934Z" fill="#747474"/>
</svg>
