<svg width="31" height="44" viewBox="0 0 31 44" fill="none" xmlns="http://www.w3.org/2000/svg">
<path d="M14.8675 6.75977H17.1634C18.7863 6.75977 19.9658 6.75999 20.8851 6.85352C21.7958 6.9462 22.396 7.12645 22.8792 7.44922C23.326 7.74773 23.7096 8.13133 24.0081 8.57812C24.3309 9.06136 24.5111 9.66215 24.6038 10.5732C24.6973 11.4927 24.6976 12.6717 24.6976 14.2939C24.6976 15.917 24.6973 17.0963 24.6038 18.0156C24.5112 18.9264 24.3309 19.5265 24.0081 20.0098C23.7096 20.4566 23.326 20.8401 22.8792 21.1387C22.4565 21.4209 21.944 21.5942 21.2142 21.6953C20.4763 21.7976 19.5494 21.8224 18.3089 21.8281L18.0013 21.8301L17.8636 22.1045L16.5941 24.6426C16.5402 24.7498 16.4579 24.8403 16.3558 24.9033C16.2536 24.9664 16.1359 24.9999 16.0159 25C15.8957 25 15.7774 24.9665 15.6751 24.9033C15.5984 24.856 15.5325 24.7934 15.4818 24.7197L15.4368 24.6426L14.1673 22.1035L14.0296 21.8291L13.722 21.8271C12.4812 21.8214 11.5538 21.7973 10.8157 21.6953C10.0856 21.5944 9.57352 21.4217 9.15167 21.1396C8.70478 20.8411 8.32132 20.4567 8.02277 20.0098C7.70003 19.5265 7.51972 18.9264 7.42706 18.0156C7.33354 17.0963 7.33331 15.917 7.33331 14.2939C7.33331 12.6713 7.33359 11.4924 7.42706 10.5732C7.51973 9.66234 7.69995 9.06139 8.02277 8.57812C8.32128 8.13134 8.70488 7.74773 9.15167 7.44922C9.6349 7.12643 10.2357 6.94619 11.1468 6.85352C12.0662 6.76 13.2452 6.75977 14.8675 6.75977ZM11.4241 12.6465C10.9872 12.6466 10.568 12.82 10.2591 13.1289C9.95014 13.4379 9.77673 13.857 9.77667 14.2939C9.77667 14.7308 9.95023 15.15 10.2591 15.459C10.568 15.7679 10.9872 15.9423 11.4241 15.9424C11.8611 15.9424 12.2802 15.768 12.5892 15.459C12.8982 15.15 13.0726 14.731 13.0726 14.2939C13.0725 13.857 12.8981 13.4379 12.5892 13.1289C12.2802 12.82 11.861 12.6465 11.4241 12.6465ZM16.0159 12.6465C15.5789 12.6465 15.1589 12.8199 14.8499 13.1289C14.541 13.4379 14.3675 13.8571 14.3675 14.2939C14.3675 14.7308 14.5411 15.15 14.8499 15.459C15.1589 15.768 15.5789 15.9424 16.0159 15.9424C16.4528 15.9423 16.8721 15.7679 17.181 15.459C17.4898 15.15 17.6634 14.7308 17.6634 14.2939C17.6633 13.8571 17.4899 13.4379 17.181 13.1289C16.8721 12.82 16.4528 12.6466 16.0159 12.6465ZM20.6068 12.6465C20.1698 12.6465 19.7507 12.82 19.4417 13.1289C19.1327 13.4379 18.9584 13.857 18.9583 14.2939C18.9583 14.731 19.1327 15.15 19.4417 15.459C19.7507 15.768 20.1697 15.9424 20.6068 15.9424C21.0437 15.9423 21.4628 15.768 21.7718 15.459C22.0807 15.15 22.2542 14.7309 22.2542 14.2939C22.2542 13.857 22.0808 13.4379 21.7718 13.1289C21.4628 12.8199 21.0437 12.6465 20.6068 12.6465Z" fill="#202020" stroke="#202020"/>
<path d="M9.86523 35.3125C9.71875 34.4629 9.03516 33.9746 8.17578 33.9746C7.01367 33.9746 6.20312 34.8633 6.20312 36.4648C6.20312 38.0859 7.02344 38.9551 8.17578 38.9551C9.01562 38.9551 9.69922 38.4863 9.86523 37.6562H11.1445C10.9492 39.0137 9.83594 40.0977 8.15625 40.0977C6.29102 40.0977 4.92383 38.7402 4.92383 36.4648C4.92383 34.1797 6.31055 32.832 8.15625 32.832C9.71875 32.832 10.9297 33.7402 11.1445 35.3125H9.86523ZM13.4297 36.8945V40H12.1797V32.9297H13.4004V35.5957H13.4688C13.7129 35 14.2207 34.6289 15.041 34.6289C16.1445 34.6289 16.8672 35.3418 16.8672 36.6211V40H15.627V36.8164C15.627 36.0938 15.2363 35.6836 14.582 35.6836C13.9082 35.6836 13.4297 36.123 13.4297 36.8945ZM17.8047 38.5059C17.8047 37.3145 18.791 36.9629 19.7773 36.9043C20.1436 36.8799 20.9053 36.8359 21.1348 36.8262V36.4062C21.1348 35.8789 20.793 35.5762 20.1777 35.5762C19.6211 35.5762 19.2793 35.8301 19.1816 36.2109H17.9805C18.0684 35.3125 18.8789 34.6289 20.207 34.6289C21.2129 34.6289 22.375 35.0391 22.375 36.4551V40H21.1836V39.2676H21.1445C20.9102 39.7168 20.4121 40.1074 19.582 40.1074C18.5664 40.1074 17.8047 39.5508 17.8047 38.5059ZM19.0059 38.4961C19.0059 38.9551 19.377 39.1895 19.9043 39.1895C20.6562 39.1895 21.1445 38.6914 21.1445 38.0957V37.6562L19.9727 37.7344C19.377 37.7832 19.0059 38.0273 19.0059 38.4961ZM26.1934 34.6973V35.6543H25.1484V38.4082C25.1484 38.916 25.4023 39.0234 25.7148 39.0234C25.8613 39.0234 26.1055 39.0137 26.2617 39.0039V40.0195C26.1152 40.0488 25.8711 40.0684 25.5586 40.0684C24.6211 40.0684 23.8984 39.6094 23.9082 38.6133V35.6543H23.1465V34.6973H23.9082V33.4277H25.1484V34.6973H26.1934Z" fill="#202020"/>
</svg>
