<svg width="31" height="44" viewBox="0 0 31 44" fill="none" xmlns="http://www.w3.org/2000/svg">
<path d="M15.999 6C16.0374 6.00006 16.0695 6.00665 16.0908 6.01465L16.1045 6.01953L25.9609 15.9834C25.944 15.9888 25.9241 15.9942 25.9014 15.9941H22.6982V23.9688C22.6829 23.9808 22.6488 24 22.5977 24H19.2979C19.2471 23.9999 19.2136 23.9808 19.1982 23.9688V18.9961H12.7988V23.9688C12.7834 23.9808 12.7499 23.9999 12.6992 24H9.39941C9.34823 24 9.31414 23.9808 9.29883 23.9688V15.9941H6.09961C6.07467 15.9941 6.05352 15.9884 6.03613 15.9824L15.8926 6.01953C15.8844 6.02769 15.8857 6.02238 15.9062 6.01465C15.9276 6.00661 15.9604 6 15.999 6Z" stroke="#747474" stroke-width="2"/>
<path d="M2.51172 40V32.9297H3.78125V35.9277H7.07227V32.9297H8.35156V40H7.07227V36.9922H3.78125V40H2.51172ZM11.916 40.1074C10.373 40.1074 9.37695 39.0137 9.37695 37.373C9.37695 35.7227 10.373 34.6289 11.916 34.6289C13.4688 34.6289 14.4551 35.7227 14.4551 37.373C14.4551 39.0137 13.4688 40.1074 11.916 40.1074ZM11.9258 39.1113C12.7754 39.1113 13.1953 38.3398 13.1953 37.3633C13.1953 36.3965 12.7754 35.6152 11.9258 35.6152C11.0566 35.6152 10.6367 36.3965 10.6367 37.3633C10.6367 38.3398 11.0566 39.1113 11.9258 39.1113ZM15.4219 40V34.6973H16.6133V35.5957H16.6816C16.8965 34.9902 17.4336 34.6289 18.1367 34.6289C18.8594 34.6289 19.3672 34.9902 19.5723 35.5957H19.6309C19.8652 35.0098 20.4512 34.6289 21.2227 34.6289C22.1895 34.6289 22.873 35.2539 22.873 36.4355V40H21.6328V36.6309C21.6328 35.9668 21.2324 35.6738 20.7246 35.6738C20.1094 35.6738 19.7578 36.0938 19.7578 36.6895V40H18.5469V36.582C18.5469 36.0352 18.1758 35.6738 17.6484 35.6738C17.1113 35.6738 16.6719 36.1133 16.6719 36.7773V40H15.4219ZM26.418 40.1074C24.8164 40.1074 23.8398 39.043 23.8398 37.3828C23.8398 35.7422 24.8359 34.6289 26.3496 34.6289C27.6484 34.6289 28.7715 35.4395 28.7715 37.3047V37.6953H25.0703C25.085 38.5986 25.6172 39.1309 26.4277 39.1309C26.9746 39.1309 27.3457 38.8965 27.502 38.584H28.7227C28.498 39.502 27.6484 40.1074 26.418 40.1074ZM25.0801 36.8457H27.5801C27.5703 36.123 27.0918 35.5957 26.3691 35.5957C25.6172 35.5957 25.1191 36.167 25.0801 36.8457Z" fill="#747474"/>
</svg>
