<svg width="31" height="44" viewBox="0 0 31 44" fill="none" xmlns="http://www.w3.org/2000/svg">
<path d="M26.7149 15.324L16.8158 5.31673C16.3989 4.89442 15.5982 4.89442 15.1813 5.31673L5.28226 15.324C5.14003 15.4678 5.04666 15.6461 5.01348 15.8372C4.98029 16.0283 5.00871 16.224 5.09528 16.4008C5.27126 16.762 5.66503 16.9942 6.09949 16.9942H8.29928V23.9993C8.29928 24.2647 8.41516 24.5192 8.62143 24.7069C8.8277 24.8946 9.10747 25 9.39918 25H12.6989C12.9906 25 13.2703 24.8946 13.4766 24.7069C13.6829 24.5192 13.7988 24.2647 13.7988 23.9993V19.9964H18.1983V23.9993C18.1983 24.2647 18.3142 24.5192 18.5205 24.7069C18.7268 24.8946 19.0065 25 19.2982 25H22.5979C22.8896 25 23.1694 24.8946 23.3757 24.7069C23.582 24.5192 23.6978 24.2647 23.6978 23.9993V16.9942H25.8976C26.1106 16.995 26.3193 16.9394 26.4982 16.8342C26.6771 16.729 26.8185 16.5787 26.9051 16.4017C26.9918 16.2246 27.0199 16.0284 26.9861 15.8371C26.9523 15.6457 26.8581 15.4674 26.7149 15.324Z" fill="#202020"/>
<path d="M2.51172 40V32.9297H3.78125V35.9277H7.07227V32.9297H8.35156V40H7.07227V36.9922H3.78125V40H2.51172ZM11.916 40.1074C10.373 40.1074 9.37695 39.0137 9.37695 37.373C9.37695 35.7227 10.373 34.6289 11.916 34.6289C13.4688 34.6289 14.4551 35.7227 14.4551 37.373C14.4551 39.0137 13.4688 40.1074 11.916 40.1074ZM11.9258 39.1113C12.7754 39.1113 13.1953 38.3398 13.1953 37.3633C13.1953 36.3965 12.7754 35.6152 11.9258 35.6152C11.0566 35.6152 10.6367 36.3965 10.6367 37.3633C10.6367 38.3398 11.0566 39.1113 11.9258 39.1113ZM15.4219 40V34.6973H16.6133V35.5957H16.6816C16.8965 34.9902 17.4336 34.6289 18.1367 34.6289C18.8594 34.6289 19.3672 34.9902 19.5723 35.5957H19.6309C19.8652 35.0098 20.4512 34.6289 21.2227 34.6289C22.1895 34.6289 22.873 35.2539 22.873 36.4355V40H21.6328V36.6309C21.6328 35.9668 21.2324 35.6738 20.7246 35.6738C20.1094 35.6738 19.7578 36.0938 19.7578 36.6895V40H18.5469V36.582C18.5469 36.0352 18.1758 35.6738 17.6484 35.6738C17.1113 35.6738 16.6719 36.1133 16.6719 36.7773V40H15.4219ZM26.418 40.1074C24.8164 40.1074 23.8398 39.043 23.8398 37.3828C23.8398 35.7422 24.8359 34.6289 26.3496 34.6289C27.6484 34.6289 28.7715 35.4395 28.7715 37.3047V37.6953H25.0703C25.085 38.5986 25.6172 39.1309 26.4277 39.1309C26.9746 39.1309 27.3457 38.8965 27.502 38.584H28.7227C28.498 39.502 27.6484 40.1074 26.418 40.1074ZM25.0801 36.8457H27.5801C27.5703 36.123 27.0918 35.5957 26.3691 35.5957C25.6172 35.5957 25.1191 36.167 25.0801 36.8457Z" fill="#202020"/>
</svg>
