<svg width="31" height="44" viewBox="0 0 31 44" fill="none" xmlns="http://www.w3.org/2000/svg">
<path d="M19.4615 8.84639V24.9987M12.5385 5.00062V21.1529M18.7534 8.68487L13.2466 5.16214C13.0276 5.05273 12.7856 4.99718 12.5408 5.00011C12.2959 5.00304 12.0553 5.06435 11.8389 5.17897L6.40913 8.82188C6.2856 8.88731 6.18224 8.98517 6.11016 9.10493C6.03807 9.2247 5.99999 9.36184 6 9.50162V23.7214C5.99999 23.854 6.03428 23.9844 6.09956 24.0999C6.16483 24.2154 6.25886 24.312 6.37252 24.3804C6.48617 24.4488 6.61559 24.4867 6.7482 24.4903C6.88081 24.4939 7.0121 24.4632 7.12933 24.4011L11.8322 21.3346C12.0503 21.219 12.2931 21.1577 12.5399 21.1557C12.7868 21.1536 13.0305 21.2111 13.2505 21.3231L18.6284 24.8323C18.8464 24.9434 19.0879 25.0009 19.3326 25C19.5774 24.9991 19.8183 24.9398 20.0356 24.827L25.5851 21.1764C25.7101 21.1115 25.815 21.0136 25.8881 20.8932C25.9613 20.7728 26 20.6347 26 20.4938V6.2779C26 6.14525 25.9657 6.01486 25.9004 5.89938C25.8352 5.7839 25.7411 5.68726 25.6275 5.61885C25.5138 5.55044 25.3844 5.51259 25.2518 5.50896C25.1192 5.50533 24.9879 5.53606 24.8707 5.59816L20.1591 8.66805C19.943 8.78234 19.7028 8.84348 19.4583 8.84641C19.2138 8.84933 18.9722 8.79396 18.7534 8.68487Z" stroke="#747474" stroke-width="2" stroke-linecap="round" stroke-linejoin="round"/>
<path d="M6.05176 32.9297H7.61426L9.71387 38.0664H9.80176L11.9014 32.9297H13.4639V40H12.2432V35.1367H12.1748L10.2119 39.9805H9.30371L7.34082 35.1172H7.28223V40H6.05176V32.9297ZM14.4697 38.5059C14.4697 37.3145 15.4561 36.9629 16.4424 36.9043C16.8086 36.8799 17.5703 36.8359 17.7998 36.8262V36.4062C17.7998 35.8789 17.458 35.5762 16.8428 35.5762C16.2861 35.5762 15.9443 35.8301 15.8467 36.2109H14.6455C14.7334 35.3125 15.5439 34.6289 16.8721 34.6289C17.8779 34.6289 19.04 35.0391 19.04 36.4551V40H17.8486V39.2676H17.8096C17.5752 39.7168 17.0771 40.1074 16.2471 40.1074C15.2314 40.1074 14.4697 39.5508 14.4697 38.5059ZM15.6709 38.4961C15.6709 38.9551 16.042 39.1895 16.5693 39.1895C17.3213 39.1895 17.8096 38.6914 17.8096 38.0957V37.6562L16.6377 37.7344C16.042 37.7832 15.6709 38.0273 15.6709 38.4961ZM20.2119 41.9922V34.6973H21.4326V35.5664H21.5107C21.7061 35.1855 22.0967 34.6289 23.0342 34.6289C24.2549 34.6289 25.2217 35.5859 25.2217 37.3535C25.2217 39.1016 24.2842 40.0977 23.0342 40.0977C22.1162 40.0977 21.7061 39.5508 21.5107 39.1602H21.4619V41.9922H20.2119ZM21.4326 37.3438C21.4326 38.3789 21.8818 39.0723 22.6924 39.0723C23.5127 39.0723 23.9521 38.3496 23.9521 37.3438C23.9521 36.3574 23.5225 35.6445 22.6924 35.6445C21.8818 35.6445 21.4326 36.3184 21.4326 37.3438Z" fill="#747474"/>
</svg>
