<svg width="31" height="44" viewBox="0 0 31 44" fill="none" xmlns="http://www.w3.org/2000/svg">
<path d="M24.6136 5.64828C23.7493 4.78391 22.3521 4.78391 21.4877 5.64828L20.2997 6.83235L24.1637 10.6964L25.3517 9.50836C26.2161 8.64399 26.2161 7.24678 25.3517 6.38241L24.6136 5.64828ZM12.8045 14.3315C12.5637 14.5723 12.3782 14.8683 12.2716 15.1959L11.1034 18.7007C10.9889 19.0402 11.0797 19.4151 11.3323 19.6717C11.5849 19.9282 11.9598 20.015 12.3032 19.9006L15.8081 18.7323C16.1317 18.6257 16.4277 18.4402 16.6725 18.1995L23.2756 11.5923L19.4077 7.72436L12.8045 14.3315ZM9.78904 7.31783C7.69717 7.31783 6 9.015 6 11.1069V21.211C6 23.3028 7.69717 25 9.78904 25H19.8931C21.985 25 23.6822 23.3028 23.6822 21.211V17.4219C23.6822 16.7233 23.1178 16.1589 22.4192 16.1589C21.7206 16.1589 21.1562 16.7233 21.1562 17.4219V21.211C21.1562 21.9096 20.5917 22.474 19.8931 22.474H9.78904C9.09043 22.474 8.52603 21.9096 8.52603 21.211V11.1069C8.52603 10.4083 9.09043 9.84385 9.78904 9.84385H13.5781C14.2767 9.84385 14.8411 9.27944 14.8411 8.58084C14.8411 7.88223 14.2767 7.31783 13.5781 7.31783H9.78904Z" fill="#202020"/>
<path d="M10.8857 32.9297V40H9.75293L6.40332 35.166H6.34473V40H5.0752V32.9297H6.22754L9.55762 37.7637H9.62598V32.9297H10.8857ZM14.4502 40.1074C12.9072 40.1074 11.9111 39.0137 11.9111 37.373C11.9111 35.7227 12.9072 34.6289 14.4502 34.6289C16.0029 34.6289 16.9893 35.7227 16.9893 37.373C16.9893 39.0137 16.0029 40.1074 14.4502 40.1074ZM14.46 39.1113C15.3096 39.1113 15.7295 38.3398 15.7295 37.3633C15.7295 36.3965 15.3096 35.6152 14.46 35.6152C13.5908 35.6152 13.1709 36.3965 13.1709 37.3633C13.1709 38.3398 13.5908 39.1113 14.46 39.1113ZM20.6025 34.6973V35.6543H19.5576V38.4082C19.5576 38.916 19.8115 39.0234 20.124 39.0234C20.2705 39.0234 20.5146 39.0137 20.6709 39.0039V40.0195C20.5244 40.0488 20.2803 40.0684 19.9678 40.0684C19.0303 40.0684 18.3076 39.6094 18.3174 38.6133V35.6543H17.5557V34.6973H18.3174V33.4277H19.5576V34.6973H20.6025ZM23.8545 40.1074C22.2529 40.1074 21.2764 39.043 21.2764 37.3828C21.2764 35.7422 22.2725 34.6289 23.7861 34.6289C25.085 34.6289 26.208 35.4395 26.208 37.3047V37.6953H22.5068C22.5215 38.5986 23.0537 39.1309 23.8643 39.1309C24.4111 39.1309 24.7822 38.8965 24.9385 38.584H26.1592C25.9346 39.502 25.085 40.1074 23.8545 40.1074ZM22.5166 36.8457H25.0166C25.0068 36.123 24.5283 35.5957 23.8057 35.5957C23.0537 35.5957 22.5557 36.167 22.5166 36.8457Z" fill="#202020"/>
</svg>
