<svg width="31" height="44" viewBox="0 0 31 44" fill="none" xmlns="http://www.w3.org/2000/svg">
<path d="M23.3596 7.16405L23.8359 7.64036C24.206 8.01038 24.206 8.60872 23.8359 8.97481L22.6904 10.1242L20.8758 8.30955L22.0213 7.16405C22.3913 6.79403 22.9896 6.79403 23.3557 7.16405H23.3596ZM14.2586 14.9306L19.5413 9.644L21.356 11.4587L16.0694 16.7414C15.9552 16.8555 15.8135 16.9382 15.66 16.9815L13.3572 17.6389L14.0146 15.3361C14.0579 15.1826 14.1405 15.0408 14.2547 14.9267L14.2586 14.9306ZM20.6868 5.8296L12.9202 13.5922C12.5778 13.9347 12.3298 14.3559 12.1999 14.8165L11.0741 18.7529C10.9796 19.0836 11.0701 19.4378 11.3142 19.6819C11.5582 19.9259 11.9125 20.0165 12.2432 19.922L16.1796 18.7962C16.6441 18.6624 17.0653 18.4144 17.4038 18.0758L25.1704 10.3132C26.2765 9.20706 26.2765 7.41205 25.1704 6.30591L24.6941 5.8296C23.588 4.72347 21.7929 4.72347 20.6868 5.8296ZM9.46406 7.36481C7.55095 7.36481 6 8.91576 6 10.8289V21.5359C6 23.449 7.55095 25 9.46406 25H20.1711C22.0842 25 23.6352 23.449 23.6352 21.5359V17.1271C23.6352 16.6036 23.214 16.1824 22.6904 16.1824C22.1669 16.1824 21.7457 16.6036 21.7457 17.1271V21.5359C21.7457 22.4059 21.0411 23.1105 20.1711 23.1105H9.46406C8.59411 23.1105 7.88948 22.4059 7.88948 21.5359V10.8289C7.88948 9.95891 8.59411 9.25429 9.46406 9.25429H13.8729C14.3964 9.25429 14.8176 8.8331 14.8176 8.30955C14.8176 7.78601 14.3964 7.36481 13.8729 7.36481H9.46406Z" fill="#747474"/>
<path d="M10.8857 32.9297V40H9.75293L6.40332 35.166H6.34473V40H5.0752V32.9297H6.22754L9.55762 37.7637H9.62598V32.9297H10.8857ZM14.4502 40.1074C12.9072 40.1074 11.9111 39.0137 11.9111 37.373C11.9111 35.7227 12.9072 34.6289 14.4502 34.6289C16.0029 34.6289 16.9893 35.7227 16.9893 37.373C16.9893 39.0137 16.0029 40.1074 14.4502 40.1074ZM14.46 39.1113C15.3096 39.1113 15.7295 38.3398 15.7295 37.3633C15.7295 36.3965 15.3096 35.6152 14.46 35.6152C13.5908 35.6152 13.1709 36.3965 13.1709 37.3633C13.1709 38.3398 13.5908 39.1113 14.46 39.1113ZM20.6025 34.6973V35.6543H19.5576V38.4082C19.5576 38.916 19.8115 39.0234 20.124 39.0234C20.2705 39.0234 20.5146 39.0137 20.6709 39.0039V40.0195C20.5244 40.0488 20.2803 40.0684 19.9678 40.0684C19.0303 40.0684 18.3076 39.6094 18.3174 38.6133V35.6543H17.5557V34.6973H18.3174V33.4277H19.5576V34.6973H20.6025ZM23.8545 40.1074C22.2529 40.1074 21.2764 39.043 21.2764 37.3828C21.2764 35.7422 22.2725 34.6289 23.7861 34.6289C25.085 34.6289 26.208 35.4395 26.208 37.3047V37.6953H22.5068C22.5215 38.5986 23.0537 39.1309 23.8643 39.1309C24.4111 39.1309 24.7822 38.8965 24.9385 38.584H26.1592C25.9346 39.502 25.085 40.1074 23.8545 40.1074ZM22.5166 36.8457H25.0166C25.0068 36.123 24.5283 35.5957 23.8057 35.5957C23.0537 35.5957 22.5557 36.167 22.5166 36.8457Z" fill="#747474"/>
</svg>
