<svg width="16" height="16" viewBox="0 0 16 16" fill="none" xmlns="http://www.w3.org/2000/svg">
<rect width="16" height="16" rx="8" fill="#BDBDBD"/>
<path d="M11.4783 8.52174C11.6166 8.52174 11.7493 8.46677 11.8472 8.36893C11.945 8.27108 12 8.13837 12 8C12 7.86163 11.945 7.72892 11.8472 7.63108C11.7493 7.53323 11.6166 7.47826 11.4783 7.47826L8.52174 7.47826L8.52174 4.52174C8.52174 4.38337 8.46677 4.25066 8.36892 4.15281C8.27108 4.05497 8.13837 4 8 4C7.86163 4 7.72892 4.05497 7.63107 4.15281C7.53323 4.25066 7.47826 4.38337 7.47826 4.52174L7.47826 7.47826L4.52174 7.47826C4.38337 7.47826 4.25066 7.53323 4.15281 7.63107C4.05497 7.72892 4 7.86163 4 8C4 8.13837 4.05497 8.27108 4.15281 8.36892C4.25066 8.46677 4.38336 8.52174 4.52174 8.52174L7.47826 8.52174L7.47826 11.4783C7.47826 11.6166 7.53323 11.7493 7.63107 11.8472C7.72892 11.945 7.86163 12 8 12C8.13837 12 8.27108 11.945 8.36892 11.8472C8.46677 11.7493 8.52174 11.6166 8.52174 11.4783L8.52174 8.52174L11.4783 8.52174Z" fill="white"/>
</svg>
