<svg width="31" height="44" viewBox="0 0 31 44" fill="none" xmlns="http://www.w3.org/2000/svg">
<path d="M16 16.9286C21.5 16.9286 26 20.5 26 23.3571C26 23.9255 25.7742 24.4705 25.3724 24.8724C24.9705 25.2742 24.4255 25.5 23.8571 25.5H8.14286C7.57454 25.5 7.02949 25.2742 6.62763 24.8724C6.22576 24.4705 6 23.9255 6 23.3571C6 20.5 10.5 16.9286 16 16.9286ZM16 5.5C17.3261 5.5 18.5979 6.02678 19.5355 6.96447C20.4732 7.90215 21 9.17392 21 10.5C21 11.8261 20.4732 13.0979 19.5355 14.0355C18.5979 14.9732 17.3261 15.5 16 15.5C14.6739 15.5 13.4021 14.9732 12.4645 14.0355C11.5268 13.0979 11 11.8261 11 10.5C11 9.17392 11.5268 7.90215 12.4645 6.96447C13.4021 6.02678 14.6739 5.5 16 5.5Z" fill="black"/>
<path d="M1.2959 39.5V32.4297H3.95215C5.57324 32.4297 6.44238 33.416 6.44238 34.7734C6.44238 36.1309 5.56348 37.1074 3.93262 37.1074H2.56543V39.5H1.2959ZM2.56543 36.0625H3.75684C4.71387 36.0625 5.14355 35.5254 5.14355 34.7734C5.14355 34.0117 4.71387 33.4941 3.75684 33.4941H2.56543V36.0625ZM7.40918 39.5V34.1973H8.62012V35.0762H8.67871C8.86426 34.4707 9.38184 34.1191 9.9873 34.1191C10.124 34.1191 10.3193 34.1289 10.4365 34.1484V35.3008C10.3291 35.2617 10.0654 35.2227 9.86035 35.2227C9.16699 35.2227 8.65918 35.7012 8.65918 36.375V39.5H7.40918ZM13.3174 39.6074C11.7744 39.6074 10.7783 38.5137 10.7783 36.873C10.7783 35.2227 11.7744 34.1289 13.3174 34.1289C14.8701 34.1289 15.8564 35.2227 15.8564 36.873C15.8564 38.5137 14.8701 39.6074 13.3174 39.6074ZM13.3271 38.6113C14.1768 38.6113 14.5967 37.8398 14.5967 36.8633C14.5967 35.8965 14.1768 35.1152 13.3271 35.1152C12.458 35.1152 12.0381 35.8965 12.0381 36.8633C12.0381 37.8398 12.458 38.6113 13.3271 38.6113ZM19.5088 34.1973V35.1543H18.415V39.5H17.165V35.1543H16.374V34.1973H17.165V33.6895C17.165 32.6543 17.8096 32.0977 18.8252 32.0977C19.1182 32.0977 19.3818 32.127 19.6162 32.1758V33.1621C19.4111 33.1328 19.2549 33.123 19.167 33.123C18.6592 33.123 18.415 33.3281 18.415 33.8066V34.1973H19.5088ZM20.3975 39.5V34.1973H21.6475V39.5H20.3975ZM21.0322 33.4453C20.6416 33.4453 20.3096 33.1426 20.3096 32.7617C20.3096 32.3906 20.6416 32.0879 21.0322 32.0879C21.4326 32.0879 21.7549 32.3906 21.7549 32.7617C21.7549 33.1426 21.4326 33.4453 21.0322 33.4453ZM24.0889 32.4297V39.5H22.8389V32.4297H24.0889ZM27.6338 39.6074C26.0322 39.6074 25.0557 38.543 25.0557 36.8828C25.0557 35.2422 26.0518 34.1289 27.5654 34.1289C28.8643 34.1289 29.9873 34.9395 29.9873 36.8047V37.1953H26.2861C26.3008 38.0986 26.833 38.6309 27.6436 38.6309C28.1904 38.6309 28.5615 38.3965 28.7178 38.084H29.9385C29.7139 39.002 28.8643 39.6074 27.6338 39.6074ZM26.2959 36.3457H28.7959C28.7861 35.623 28.3076 35.0957 27.585 35.0957C26.833 35.0957 26.335 35.667 26.2959 36.3457Z" fill="#202020"/>
</svg>
