<svg width="16" height="16" viewBox="0 0 16 16" fill="none" xmlns="http://www.w3.org/2000/svg">
<path d="M8 4C4.521 4 1 5.07031 1 7.11538V9.88462C1 11.9297 4.521 13 8 13C11.479 13 15 11.9297 15 9.88462V7.11538C15 5.07031 11.479 4 8 4ZM2.4 9.88462V9.05592C2.84337 9.30418 3.31282 9.50383 3.8 9.65131V10.9535C2.8816 10.5977 2.4 10.174 2.4 9.88462ZM10.8 9.98708V11.3516C10.1931 11.4755 9.4931 11.5662 8.7 11.5995V10.2148C9.40445 10.1866 10.1061 10.1105 10.8 9.98708ZM7.3 11.6002C6.59446 11.5728 5.89224 11.4899 5.2 11.3523V9.98777C5.8713 10.1082 6.5804 10.1865 7.3 10.2162V11.6002ZM12.2 10.9535V9.65131C12.6872 9.50383 13.1566 9.30418 13.6 9.05592V9.88462C13.6 10.174 13.1191 10.5977 12.2 10.9535ZM8 8.84615C4.3761 8.84615 2.4 7.70315 2.4 7.11538C2.4 6.52762 4.3761 5.38462 8 5.38462C11.6239 5.38462 13.6 6.52762 13.6 7.11538C13.6 7.70315 11.6239 8.84615 8 8.84615Z" fill="#BDBDBD"/>
</svg>
