<svg width="32" height="32" viewBox="0 0 32 32" fill="none" xmlns="http://www.w3.org/2000/svg">
<rect width="32" height="32" rx="16" fill="#FC6340"/>
<path d="M20.5353 10.5415C21.1084 10.3412 21.659 10.8918 21.4587 11.4649L18.1164 21.0153C17.8992 21.6347 17.0361 21.6697 16.7699 21.07L15.1571 17.4417L17.4271 15.1711C17.5018 15.0909 17.5425 14.9849 17.5405 14.8753C17.5386 14.7656 17.4942 14.6611 17.4167 14.5836C17.3392 14.506 17.2346 14.4616 17.125 14.4597C17.0154 14.4578 16.9093 14.4985 16.8291 14.5732L14.5586 16.8432L10.9302 15.2304C10.3305 14.9635 10.3661 14.101 10.9849 13.8838L20.5353 10.5415Z" fill="white"/>
</svg>
